<?xml version="1.0" standalone="no"?>
<!DOCTYPE svg PUBLIC "-//W3C//DTD SVG 20010904//EN"
 "http://www.w3.org/TR/2001/REC-SVG-20010904/DTD/svg10.dtd">
<svg version="1.0" xmlns="http://www.w3.org/2000/svg"
 width="497.000000pt" height="202.000000pt" viewBox="0 0 497.000000 202.000000"
 preserveAspectRatio="xMidYMid meet">

<g transform="translate(0.000000,202.000000) scale(0.100000,-0.100000)"
fill="#000000" stroke="none">
<path d="M255 1993 c-101 -41 -175 -119 -211 -223 -17 -50 -19 -88 -19 -440 0
-339 2 -392 18 -442 31 -103 132 -202 232 -229 28 -8 671 -12 2220 -13 2068
-1 2183 0 2230 17 108 38 188 122 221 230 17 56 19 98 19 437 -1 329 -3 382
-19 435 -32 109 -112 192 -219 229 -43 15 -242 16 -2240 15 -1990 0 -2196 -2
-2232 -16z m3300 -293 c38 -6 74 -15 78 -19 6 -6 4 -31 -4 -61 -12 -48 -15
-51 -39 -45 -14 3 -69 9 -122 12 -235 13 -388 -88 -388 -257 0 -115 73 -202
202 -241 56 -17 85 -20 175 -16 60 3 119 7 132 9 21 3 25 -3 38 -46 8 -27 11
-52 6 -57 -17 -17 -168 -31 -253 -24 -113 9 -173 22 -245 54 -206 93 -260 377
-104 546 110 119 313 175 524 145z m779 -33 c93 -44 158 -108 199 -196 26 -55
31 -76 30 -142 0 -65 -5 -88 -30 -141 -80 -168 -263 -258 -469 -230 -240 32
-380 212 -344 439 14 86 51 154 115 209 92 78 176 104 321 100 93 -2 108 -6
178 -39z m-3314 -27 l0 -60 -195 0 -195 0 0 -95 0 -95 178 0 c97 0 183 -4 190
-9 9 -5 12 -25 10 -57 l-3 -49 -187 -3 -187 -2 -3 -153 -3 -152 -65 0 -65 0
-3 355 c-1 195 0 361 3 367 3 10 65 13 265 13 l260 0 0 -60z m285 -310 l0
-365 -65 0 -65 0 -3 355 c-1 195 0 361 3 368 3 9 23 12 67 10 l63 -3 0 -365z
m472 195 c68 -93 149 -213 180 -265 31 -52 59 -98 62 -102 3 -4 5 117 3 268
l-3 275 63 -3 63 -3 0 -365 0 -365 -72 -3 -71 -3 -139 195 c-76 108 -162 235
-190 283 -29 48 -53 81 -53 73 0 -8 -1 -134 -3 -280 l-2 -265 -65 0 -65 0 -3
355 c-1 195 0 361 3 368 3 9 27 12 87 10 l83 -3 122 -170z m1061 113 l-3 -53
-193 -3 -193 -2 3 -98 3 -97 183 -3 182 -2 0 -55 0 -55 -185 0 -185 0 0 -100
0 -100 196 0 195 0 -3 -52 -3 -53 -260 0 -260 0 -3 363 -2 362 265 0 266 0 -3
-52z"/>
<path d="M4080 1589 c-100 -16 -185 -80 -208 -157 -17 -56 -15 -166 4 -210 56
-135 241 -194 389 -123 70 33 106 68 134 131 41 90 23 193 -46 270 -64 72
-169 106 -273 89z"/>
<path d="M512 163 l3 -138 148 0 c136 0 150 2 163 19 18 25 18 86 0 112 -10
13 -11 25 -5 35 14 22 11 62 -7 87 -14 21 -22 22 -160 22 l-145 0 3 -137z
m262 101 c10 -4 16 -18 16 -35 0 -40 -31 -50 -144 -47 l-91 3 -3 43 -3 42 105
0 c57 0 111 -3 120 -6z m14 -126 c19 -19 15 -66 -8 -78 -12 -6 -63 -10 -122
-8 l-103 3 -3 48 -3 47 113 0 c75 0 118 -4 126 -12z"/>
<path d="M1822 225 c-113 -198 -116 -205 -93 -205 13 0 26 11 36 30 l16 30
114 0 114 0 24 -31 c13 -17 31 -29 39 -28 11 3 -3 37 -61 141 -75 136 -76 138
-111 138 -33 0 -37 -4 -78 -75z m126 -27 c23 -40 38 -76 36 -80 -7 -12 -162
-10 -169 2 -7 11 71 150 85 150 5 0 26 -32 48 -72z"/>
<path d="M2960 160 c0 -118 2 -140 15 -140 13 0 15 20 15 120 0 90 3 120 13
120 7 0 66 -54 132 -120 92 -92 126 -120 146 -120 25 0 27 3 33 61 3 34 6 97
6 140 0 72 -2 79 -20 79 -19 0 -20 -7 -20 -120 0 -66 -3 -120 -8 -120 -4 0
-61 54 -127 120 -104 104 -124 120 -152 120 l-33 0 0 -140z"/>
<path d="M4180 161 c0 -117 3 -141 15 -141 10 0 15 16 17 63 3 59 4 62 30 65
19 2 53 -15 125 -62 65 -44 108 -66 127 -66 25 0 15 9 -70 64 -54 35 -100 71
-102 79 -2 10 29 36 90 76 82 54 90 61 63 61 -21 0 -59 -19 -119 -60 -79 -54
-133 -74 -138 -52 0 4 -2 30 -3 57 -2 37 -6 51 -19 53 -14 3 -16 -12 -16 -137z"/>
</g>
</svg>
